<svg version="1.1" xmlns="http://www.w3.org/2000/svg" viewBox="0 0 612.6188937711635 219.1269151934801" width="612.6188937711635" height="219.1269151934801"><!-- svg-source:excalidraw --><metadata></metadata><defs><style class="style-fonts">
      </style></defs><g transform="translate(317.2040623927643 68.87467432771462) rotate(10.747726640977856 20.215391917865986 38.339468541774465)" stroke="none"><path fill="#1e1e1e" d="M -1.08,-1.24 Q -1.08,-1.24 1.98,-4.19 5.06,-7.15 8.32,-10.70 11.58,-14.25 14.06,-18.43 16.54,-22.60 18.75,-27.92 20.97,-33.23 21.46,-37.27 21.96,-41.30 21.42,-45.61 20.88,-49.92 19.27,-52.19 17.65,-54.47 16.41,-53.59 15.16,-52.71 14.78,-48.90 14.39,-45.08 14.55,-36.62 14.71,-28.15 15.58,-16.53 16.45,-4.91 17.22,8.89 18.00,22.70 17.53,37.48 17.06,52.27 15.66,64.62 14.26,76.97 10.87,89.20 7.48,101.43 4.01,109.90 0.55,118.38 -3.42,124.20 -7.39,130.03 -9.81,131.98 -12.23,133.93 -12.45,134.18 -12.68,134.43 -12.95,134.61 -13.23,134.80 -13.54,134.92 -13.85,135.04 -14.19,135.07 -14.52,135.11 -14.85,135.07 -15.18,135.03 -15.49,134.91 -15.80,134.79 -16.08,134.60 -16.35,134.40 -16.57,134.15 -16.79,133.90 -16.94,133.61 -17.10,133.31 -17.18,132.98 -17.25,132.66 -17.25,132.33 -17.25,131.99 -17.17,131.67 -17.09,131.34 -16.93,131.05 -16.77,130.75 -17.89,130.38 -19.02,130.01 -16.38,118.17 -13.75,106.34 -8.11,91.45 -2.47,76.56 5.99,59.76 14.46,42.96 20.88,31.80 27.31,20.65 34.25,12.24 41.19,3.83 46.08,-0.26 50.96,-4.36 54.30,-7.53 57.63,-10.70 57.81,-10.82 57.98,-10.94 58.19,-11.00 58.39,-11.06 58.60,-11.05 58.81,-11.04 59.01,-10.96 59.21,-10.89 59.38,-10.75 59.54,-10.62 59.65,-10.44 59.76,-10.26 59.81,-10.05 59.86,-9.84 59.84,-9.63 59.82,-9.42 59.73,-9.23 59.65,-9.03 59.50,-8.88 59.36,-8.72 59.17,-8.62 58.99,-8.52 58.78,-8.48 58.57,-8.44 58.36,-8.47 58.15,-8.50 57.96,-8.60 57.77,-8.70 57.62,-8.85 57.47,-9.00 57.38,-9.19 57.29,-9.39 57.26,-9.60 57.24,-9.81 57.28,-10.02 57.32,-10.22 57.43,-10.41 57.54,-10.59 57.70,-10.73 57.86,-10.87 58.05,-10.95 58.25,-11.03 58.46,-11.05 58.67,-11.06 58.88,-11.01 59.09,-10.95 59.26,-10.84 59.44,-10.72 59.57,-10.55 59.70,-10.38 59.77,-10.18 59.84,-9.98 59.85,-9.77 59.85,-9.56 59.78,-9.36 59.72,-9.15 59.59,-8.98 59.47,-8.81 59.47,-8.81 59.47,-8.81 56.21,-5.56 52.96,-2.32 48.93,2.25 44.90,6.83 38.41,15.07 31.92,23.31 25.61,34.35 19.30,45.39 10.99,61.96 2.69,78.52 -2.83,93.10 -8.36,107.68 -11.25,118.03 -14.15,128.38 -13.19,131.15 -12.23,133.93 -12.45,134.18 -12.68,134.43 -12.95,134.61 -13.23,134.80 -13.54,134.92 -13.85,135.04 -14.19,135.07 -14.52,135.11 -14.85,135.07 -15.18,135.03 -15.49,134.91 -15.80,134.79 -16.08,134.60 -16.35,134.40 -16.57,134.15 -16.79,133.90 -16.94,133.61 -17.10,133.31 -17.18,132.98 -17.25,132.66 -17.25,132.33 -17.25,131.99 -17.17,131.67 -17.09,131.34 -16.93,131.05 -16.77,130.75 -14.30,128.80 -11.83,126.84 -8.06,121.59 -4.29,116.34 -0.85,108.19 2.57,100.03 5.99,88.22 9.40,76.41 10.81,64.26 12.22,52.11 12.71,37.54 13.19,22.97 12.43,9.20 11.68,-4.56 10.83,-16.32 9.98,-28.08 9.87,-36.91 9.76,-45.75 10.62,-50.57 11.49,-55.39 13.38,-57.23 15.27,-59.06 18.25,-58.14 21.23,-57.22 23.29,-53.94 25.36,-50.67 25.92,-45.70 26.49,-40.72 25.81,-36.11 25.14,-31.50 22.71,-25.92 20.28,-20.34 17.49,-15.85 14.70,-11.35 11.23,-7.71 7.76,-4.06 4.42,-1.41 1.08,1.24 0.92,1.35 0.75,1.46 0.57,1.53 0.38,1.60 0.18,1.63 -0.01,1.65 -0.20,1.62 -0.40,1.60 -0.59,1.53 -0.77,1.45 -0.94,1.34 -1.10,1.23 -1.23,1.08 -1.36,0.93 -1.45,0.75 -1.55,0.57 -1.59,0.38 -1.64,0.18 -1.64,-0.01 -1.64,-0.20 -1.59,-0.40 -1.54,-0.59 -1.44,-0.77 -1.35,-0.94 -1.22,-1.09 -1.08,-1.24 -1.08,-1.24 L -1.08,-1.24 Z"></path></g><g transform="translate(334.6502499821328 121.21003197757148) rotate(10.747726640977856 51.58395130112751 -13.244509350855424)" stroke="none"><path fill="#1e1e1e" d="M -0.77,-1.55 Q -0.77,-1.55 0.79,-2.54 2.37,-3.54 4.72,-3.61 7.07,-3.68 9.79,-2.80 12.50,-1.92 15.68,-0.31 18.85,1.29 21.07,2.82 23.29,4.36 25.24,5.27 27.18,6.18 28.56,6.52 29.94,6.87 32.48,5.85 35.02,4.84 37.18,3.00 39.33,1.17 41.34,-2.22 43.35,-5.61 44.62,-8.60 45.89,-11.59 45.98,-13.35 46.06,-15.11 43.21,-13.55 40.37,-11.99 38.64,-9.79 36.92,-7.59 35.81,-5.54 34.70,-3.49 34.26,-2.14 33.83,-0.80 34.44,0.11 35.05,1.02 36.44,-0.96 37.84,-2.95 38.74,-4.45 39.64,-5.95 40.96,-7.93 42.28,-9.91 44.14,-10.65 46.00,-11.39 47.14,-11.01 48.28,-10.62 49.25,-8.85 50.22,-7.09 50.81,-5.80 51.40,-4.51 52.69,-4.83 53.98,-5.14 54.92,-7.05 55.86,-8.96 56.75,-11.36 57.63,-13.77 58.42,-16.05 59.21,-18.33 60.75,-20.67 62.30,-23.00 64.02,-23.14 65.75,-23.28 67.30,-22.05 68.85,-20.83 69.53,-17.92 70.20,-15.01 70.37,-12.71 70.55,-10.40 70.63,-8.21 70.71,-6.02 70.76,-4.70 70.81,-3.38 70.84,-2.42 70.87,-1.47 70.84,-1.16 70.81,-0.85 70.70,-0.56 70.60,-0.26 70.43,-0.00 70.26,0.25 70.03,0.46 69.80,0.67 69.53,0.82 69.26,0.97 68.96,1.05 68.66,1.13 68.35,1.14 68.04,1.15 67.73,1.08 67.43,1.01 67.15,0.87 66.87,0.73 66.64,0.53 66.40,0.33 66.22,0.08 66.03,-0.16 65.92,-0.45 65.80,-0.74 65.76,-1.05 65.71,-1.35 66.16,-4.05 66.60,-6.74 67.62,-9.51 68.63,-12.29 69.44,-14.60 70.25,-16.92 71.09,-18.48 71.93,-20.05 72.95,-21.43 73.98,-22.80 75.43,-23.08 76.89,-23.35 78.67,-22.40 80.45,-21.44 82.56,-21.16 84.66,-20.88 86.05,-21.19 87.45,-21.51 88.60,-22.29 89.75,-23.07 90.93,-24.41 92.10,-25.75 92.48,-27.17 92.85,-28.60 92.66,-29.73 92.48,-30.87 92.42,-31.99 92.36,-33.11 92.34,-33.98 92.33,-34.84 92.35,-35.14 92.37,-35.44 92.46,-35.73 92.55,-36.02 92.71,-36.28 92.87,-36.53 93.08,-36.75 93.30,-36.96 93.56,-37.11 93.82,-37.27 94.11,-37.36 94.40,-37.45 94.70,-37.46 95.00,-37.48 95.30,-37.42 95.60,-37.36 95.87,-37.24 96.15,-37.11 96.39,-36.92 96.62,-36.74 96.81,-36.50 96.99,-36.26 97.12,-35.98 97.24,-35.70 97.29,-35.40 97.34,-35.11 98.59,-32.19 99.84,-29.28 101.07,-26.33 102.30,-23.39 103.26,-20.45 104.23,-17.51 104.68,-14.48 105.13,-11.46 104.89,-8.70 104.66,-5.95 103.46,-3.92 102.26,-1.88 100.07,-0.90 97.88,0.07 95.46,-1.02 93.03,-2.13 93.26,-5.22 93.49,-8.32 93.51,-8.53 93.54,-8.74 93.63,-8.93 93.73,-9.12 93.88,-9.27 94.02,-9.42 94.21,-9.52 94.40,-9.61 94.61,-9.64 94.82,-9.67 95.03,-9.63 95.24,-9.60 95.43,-9.49 95.61,-9.39 95.76,-9.23 95.90,-9.07 95.99,-8.88 96.07,-8.69 96.09,-8.47 96.11,-8.26 96.06,-8.06 96.01,-7.85 95.89,-7.67 95.78,-7.49 95.62,-7.36 95.45,-7.22 95.25,-7.15 95.05,-7.07 94.84,-7.06 94.63,-7.06 94.43,-7.12 94.22,-7.18 94.05,-7.30 93.88,-7.43 93.75,-7.60 93.62,-7.77 93.56,-7.97 93.50,-8.17 93.50,-8.39 93.51,-8.60 93.58,-8.80 93.65,-9.00 93.78,-9.17 93.91,-9.33 94.09,-9.45 94.27,-9.56 94.48,-9.62 94.68,-9.67 94.89,-9.65 95.11,-9.64 95.30,-9.55 95.50,-9.47 95.66,-9.33 95.82,-9.19 95.92,-9.00 96.03,-8.82 96.07,-8.61 96.11,-8.40 96.11,-8.40 96.11,-8.40 96.25,-6.52 96.40,-4.64 97.98,-5.67 99.57,-6.70 99.81,-8.74 100.05,-10.78 99.72,-13.38 99.39,-15.97 98.52,-18.71 97.65,-21.45 96.45,-24.32 95.26,-27.20 94.24,-29.47 93.22,-31.74 92.77,-33.29 92.33,-34.84 92.35,-35.14 92.37,-35.44 92.46,-35.73 92.55,-36.02 92.71,-36.28 92.87,-36.53 93.08,-36.75 93.30,-36.96 93.56,-37.11 93.82,-37.27 94.11,-37.36 94.40,-37.45 94.70,-37.46 95.00,-37.48 95.30,-37.42 95.60,-37.36 95.87,-37.24 96.15,-37.11 96.39,-36.92 96.62,-36.74 96.81,-36.50 96.99,-36.26 97.12,-35.98 97.24,-35.70 97.29,-35.40 97.34,-35.11 97.43,-33.20 97.52,-31.30 97.61,-29.23 97.69,-27.17 96.82,-24.82 95.95,-22.48 94.20,-20.61 92.45,-18.74 90.48,-17.62 88.52,-16.51 86.35,-16.15 84.19,-15.79 82.63,-15.96 81.07,-16.14 78.75,-16.89 76.43,-17.65 75.77,-16.43 75.11,-15.21 74.29,-12.86 73.47,-10.52 72.54,-7.97 71.62,-5.42 71.24,-3.45 70.87,-1.47 70.84,-1.16 70.81,-0.85 70.70,-0.56 70.60,-0.26 70.43,-0.00 70.26,0.25 70.03,0.46 69.80,0.67 69.53,0.82 69.26,0.97 68.96,1.05 68.66,1.13 68.35,1.14 68.04,1.15 67.73,1.08 67.43,1.01 67.15,0.87 66.87,0.73 66.64,0.53 66.40,0.33 66.22,0.08 66.03,-0.16 65.92,-0.45 65.80,-0.74 65.76,-1.05 65.71,-1.35 65.72,-2.31 65.72,-3.27 65.72,-4.57 65.71,-5.87 65.66,-7.96 65.60,-10.04 65.46,-12.14 65.31,-14.24 64.53,-16.69 63.75,-19.13 63.80,-17.91 63.85,-16.69 63.02,-14.37 62.18,-12.05 61.12,-9.29 60.06,-6.53 58.33,-3.84 56.59,-1.15 54.62,-0.29 52.66,0.55 50.89,0.11 49.12,-0.32 48.10,-1.30 47.08,-2.27 46.61,-4.56 46.14,-6.85 45.03,-5.08 43.93,-3.32 42.90,-1.66 41.87,-0.01 40.08,2.16 38.30,4.34 36.32,4.86 34.34,5.39 32.41,4.21 30.47,3.02 29.77,0.71 29.06,-1.58 29.68,-3.74 30.30,-5.90 31.66,-8.31 33.02,-10.73 35.23,-13.38 37.44,-16.04 40.83,-18.15 44.22,-20.27 46.52,-19.85 48.81,-19.43 49.90,-17.11 50.98,-14.78 50.71,-12.25 50.43,-9.72 48.96,-6.38 47.49,-3.05 44.95,0.89 42.41,4.84 39.50,7.08 36.60,9.31 32.89,10.34 29.19,11.36 27.18,10.83 25.18,10.31 22.95,9.18 20.72,8.04 18.76,6.65 16.81,5.26 13.93,3.76 11.05,2.26 8.96,1.49 6.87,0.71 5.45,0.52 4.03,0.33 2.40,0.94 0.77,1.55 0.57,1.62 0.38,1.69 0.17,1.71 -0.03,1.73 -0.24,1.70 -0.44,1.67 -0.64,1.59 -0.83,1.51 -1.00,1.39 -1.17,1.27 -1.30,1.11 -1.44,0.95 -1.53,0.76 -1.63,0.58 -1.67,0.37 -1.72,0.17 -1.72,-0.03 -1.71,-0.24 -1.66,-0.44 -1.60,-0.64 -1.50,-0.82 -1.40,-1.01 -1.26,-1.16 -1.12,-1.31 -0.94,-1.43 -0.77,-1.55 -0.77,-1.55 L -0.77,-1.55 Z"></path></g><g transform="translate(456.3165226503769 104.6830700031228) rotate(10.747726640977856 57.1606148083323 13.244509350855367)" stroke="none"><path fill="#1e1e1e" d="M -1.63,-0.81 Q -1.63,-0.81 -1.46,-1.73 -1.29,-2.65 -1.14,-2.89 -0.98,-3.12 -0.77,-3.31 -0.57,-3.51 -0.32,-3.64 -0.07,-3.78 0.19,-3.85 0.47,-3.92 0.75,-3.93 1.03,-3.94 1.31,-3.87 1.59,-3.81 1.84,-3.68 2.09,-3.56 2.31,-3.37 2.52,-3.19 2.69,-2.96 2.85,-2.73 2.96,-2.47 3.07,-2.21 3.11,-1.92 3.15,-1.64 3.12,-1.36 3.09,-1.08 2.99,-0.81 2.90,-0.55 1.55,0.05 0.19,0.67 -1.41,3.54 -3.02,6.41 -3.41,8.57 -3.80,10.74 -4.01,12.50 -4.22,14.26 -3.95,15.91 -3.68,17.56 -3.74,17.85 -3.80,18.14 -3.93,18.40 -4.05,18.67 -4.24,18.89 -4.42,19.12 -4.66,19.29 -4.89,19.47 -5.16,19.59 -5.43,19.70 -5.72,19.75 -6.01,19.79 -6.30,19.77 -6.59,19.75 -6.87,19.65 -7.14,19.56 -7.39,19.40 -7.64,19.25 -7.84,19.04 -8.04,18.83 -8.19,18.57 -8.34,18.32 -8.42,18.04 -8.50,17.76 -8.51,17.47 -8.52,17.17 -7.24,15.44 -5.95,13.71 -5.29,12.65 -4.63,11.60 -3.94,10.36 -3.25,9.11 -2.93,8.15 -2.60,7.18 -2.43,6.94 -2.25,6.70 -2.03,6.51 -1.80,6.32 -1.53,6.19 -1.27,6.06 -0.98,6.00 -0.69,5.94 -0.39,5.95 -0.09,5.96 0.18,6.04 0.47,6.12 0.73,6.26 0.98,6.41 1.20,6.61 1.42,6.81 1.58,7.06 1.74,7.31 1.83,7.59 1.93,7.87 1.96,8.17 1.99,8.46 1.94,8.75 1.90,9.05 1.78,9.32 1.67,9.59 1.58,11.05 1.49,12.50 1.37,14.08 1.26,15.65 1.54,16.79 1.82,17.94 3.08,18.21 4.34,18.47 6.41,16.69 8.48,14.90 10.98,11.50 13.47,8.09 17.31,-0.43 21.15,-8.97 23.56,-16.20 25.97,-23.43 27.35,-29.26 28.73,-35.09 29.77,-38.12 30.82,-41.14 30.83,-42.00 30.85,-42.87 31.00,-43.16 31.14,-43.45 31.35,-43.70 31.56,-43.95 31.82,-44.14 32.09,-44.33 32.39,-44.46 32.69,-44.58 33.01,-44.63 33.34,-44.68 33.66,-44.65 33.99,-44.61 34.29,-44.51 34.60,-44.40 34.87,-44.22 35.15,-44.04 35.37,-43.80 35.59,-43.57 35.75,-43.28 35.91,-43.00 36.00,-42.68 36.08,-42.37 36.09,-42.04 36.10,-41.72 36.03,-41.40 35.96,-41.08 35.64,-38.49 35.32,-35.91 34.76,-28.76 34.20,-21.62 33.15,-11.70 32.10,-1.77 30.44,7.33 28.78,16.45 24.79,25.78 20.79,35.11 15.80,42.39 10.80,49.68 4.55,55.68 -1.70,61.69 -6.90,65.12 -12.10,68.55 -17.55,69.36 -23.00,70.16 -24.90,67.32 -26.80,64.48 -23.79,57.33 -20.78,50.18 -9.20,39.05 2.38,27.92 15.78,19.17 29.18,10.41 45.88,4.20 62.57,-2.01 75.28,-5.43 88.00,-8.85 99.05,-11.10 110.10,-13.35 117.19,-14.67 124.28,-15.99 128.86,-16.92 133.45,-17.85 135.82,-18.24 138.18,-18.62 138.49,-18.65 138.80,-18.68 139.10,-18.63 139.41,-18.58 139.69,-18.46 139.98,-18.34 140.23,-18.16 140.48,-17.98 140.67,-17.74 140.87,-17.50 141.01,-17.22 141.14,-16.94 141.21,-16.64 141.27,-16.34 141.26,-16.03 141.25,-15.72 141.16,-15.42 141.08,-15.12 140.93,-14.85 140.78,-14.59 140.56,-14.36 140.35,-14.14 140.09,-13.97 139.83,-13.80 139.54,-13.70 139.24,-13.60 137.33,-13.82 135.42,-14.03 135.21,-14.03 134.99,-14.04 134.79,-14.11 134.59,-14.18 134.43,-14.31 134.26,-14.44 134.14,-14.62 134.03,-14.80 133.97,-15.01 133.92,-15.21 133.94,-15.42 133.95,-15.64 134.03,-15.83 134.12,-16.03 134.26,-16.19 134.40,-16.35 134.58,-16.45 134.76,-16.56 134.97,-16.60 135.18,-16.64 135.39,-16.62 135.60,-16.59 135.79,-16.50 135.99,-16.40 136.14,-16.26 136.29,-16.11 136.38,-15.92 136.48,-15.73 136.51,-15.52 136.54,-15.31 136.50,-15.10 136.47,-14.89 136.36,-14.70 136.26,-14.52 136.10,-14.37 135.95,-14.23 135.75,-14.14 135.56,-14.06 135.35,-14.04 135.13,-14.02 134.93,-14.07 134.72,-14.12 134.54,-14.23 134.36,-14.35 134.23,-14.51 134.09,-14.67 134.02,-14.87 133.94,-15.07 133.93,-15.28 133.93,-15.50 133.99,-15.70 134.05,-15.90 134.17,-16.08 134.29,-16.25 134.46,-16.38 134.63,-16.50 134.84,-16.57 135.04,-16.63 135.04,-16.63 135.04,-16.63 136.61,-17.63 138.18,-18.62 138.49,-18.65 138.80,-18.68 139.10,-18.63 139.41,-18.58 139.69,-18.46 139.98,-18.34 140.23,-18.16 140.48,-17.98 140.67,-17.74 140.87,-17.50 141.01,-17.22 141.14,-16.94 141.21,-16.64 141.27,-16.34 141.26,-16.03 141.25,-15.72 141.16,-15.42 141.08,-15.12 140.93,-14.85 140.78,-14.59 140.56,-14.36 140.35,-14.14 140.09,-13.97 139.83,-13.80 139.54,-13.70 139.24,-13.60 136.89,-13.16 134.54,-12.72 129.92,-11.70 125.29,-10.68 118.25,-9.30 111.21,-7.91 100.32,-5.69 89.44,-3.47 76.96,-0.15 64.47,3.17 48.28,9.06 32.09,14.95 19.05,23.35 6.00,31.76 -5.03,42.15 -16.06,52.54 -19.12,58.30 -22.17,64.07 -21.37,65.19 -20.56,66.32 -17.76,65.15 -14.96,63.99 -10.19,60.88 -5.42,57.77 0.47,52.18 6.37,46.58 11.10,39.77 15.84,32.95 19.66,24.20 23.47,15.45 25.10,6.55 26.73,-2.34 27.77,-12.19 28.80,-22.04 29.37,-29.34 29.94,-36.64 30.40,-39.75 30.85,-42.87 31.00,-43.16 31.14,-43.45 31.35,-43.70 31.56,-43.95 31.82,-44.14 32.09,-44.33 32.39,-44.46 32.69,-44.58 33.01,-44.63 33.34,-44.68 33.66,-44.65 33.98,-44.61 34.29,-44.51 34.60,-44.40 34.87,-44.22 35.15,-44.04 35.37,-43.81 35.59,-43.57 35.75,-43.28 35.91,-43.00 35.99,-42.68 36.08,-42.37 36.09,-42.04 36.10,-41.72 36.03,-41.40 35.96,-41.08 35.91,-40.26 35.86,-39.45 34.87,-36.64 33.87,-33.82 32.33,-27.81 30.79,-21.80 28.22,-14.36 25.65,-6.93 21.55,2.05 17.44,11.05 14.45,14.94 11.45,18.83 8.15,21.01 4.85,23.19 2.47,22.91 0.09,22.62 -1.36,20.94 -2.82,19.27 -3.22,17.29 -3.61,15.31 -3.07,12.53 -2.53,9.74 -2.57,8.46 -2.60,7.18 -2.43,6.94 -2.25,6.70 -2.03,6.51 -1.80,6.32 -1.53,6.19 -1.27,6.06 -0.98,6.00 -0.69,5.94 -0.39,5.95 -0.09,5.96 0.18,6.04 0.47,6.12 0.73,6.26 0.98,6.41 1.20,6.61 1.42,6.81 1.58,7.06 1.74,7.31 1.83,7.59 1.93,7.87 1.96,8.17 1.99,8.46 1.94,8.75 1.90,9.05 1.78,9.32 1.67,9.59 1.36,10.55 1.05,11.51 0.25,12.91 -0.53,14.31 -2.11,15.94 -3.68,17.56 -3.74,17.85 -3.80,18.14 -3.93,18.40 -4.05,18.67 -4.24,18.89 -4.42,19.12 -4.66,19.29 -4.89,19.47 -5.16,19.59 -5.43,19.70 -5.72,19.75 -6.01,19.79 -6.30,19.77 -6.59,19.75 -6.87,19.65 -7.14,19.56 -7.39,19.41 -7.64,19.25 -7.84,19.04 -8.04,18.83 -8.19,18.57 -8.34,18.32 -8.42,18.04 -8.50,17.76 -8.51,17.47 -8.52,17.17 -8.83,16.85 -9.14,16.53 -9.09,15.10 -9.04,13.67 -8.79,11.70 -8.55,9.73 -7.88,6.88 -7.20,4.03 -5.81,1.71 -4.42,-0.60 -2.86,-1.62 -1.29,-2.65 -1.14,-2.88 -0.98,-3.12 -0.77,-3.31 -0.57,-3.50 -0.32,-3.64 -0.07,-3.78 0.19,-3.85 0.47,-3.92 0.75,-3.93 1.03,-3.94 1.31,-3.87 1.59,-3.81 1.84,-3.68 2.09,-3.56 2.31,-3.37 2.52,-3.19 2.69,-2.96 2.85,-2.73 2.96,-2.47 3.07,-2.21 3.11,-1.92 3.15,-1.64 3.12,-1.36 3.09,-1.08 2.99,-0.81 2.90,-0.55 2.27,0.13 1.63,0.81 1.51,1.00 1.39,1.18 1.23,1.33 1.07,1.48 0.87,1.59 0.68,1.70 0.46,1.75 0.25,1.81 0.03,1.81 -0.18,1.82 -0.40,1.77 -0.61,1.72 -0.81,1.62 -1.01,1.52 -1.17,1.38 -1.34,1.24 -1.47,1.06 -1.60,0.88 -1.68,0.67 -1.77,0.47 -1.80,0.25 -1.83,0.03 -1.80,-0.18 -1.78,-0.40 -1.71,-0.61 -1.63,-0.81 -1.63,-0.81 L -1.63,-0.81 Z"></path></g><g transform="translate(594.8481797049784 105.87112892859125) rotate(10.747726640977856 0.6970696426494669 2.0912355194506063)" stroke="none"><path fill="#1e1e1e" d="M 1.86,-0.62 Q 1.86,-0.62 1.55,-0.51 1.24,-0.41 1.27,-0.26 1.30,-0.10 1.30,0.05 1.29,0.21 1.25,0.36 1.20,0.51 1.12,0.65 1.04,0.78 0.93,0.90 0.83,1.01 0.69,1.10 0.56,1.18 0.41,1.23 0.26,1.28 0.10,1.29 -0.05,1.31 -0.20,1.28 -0.36,1.26 -0.51,1.19 -0.65,1.13 -0.78,1.04 -0.91,0.94 -1.01,0.82 -1.11,0.70 -1.17,0.55 -1.24,0.41 -1.27,0.20 -1.31,-0.00 -1.27,-0.21 -1.24,-0.42 -1.14,-0.61 -1.04,-0.79 -0.88,-0.94 -0.73,-1.08 -0.54,-1.17 -0.34,-1.26 -0.13,-1.28 0.07,-1.31 0.28,-1.26 0.49,-1.21 0.67,-1.10 0.85,-0.99 0.99,-0.83 1.12,-0.67 1.20,-0.47 1.28,-0.27 1.29,-0.06 1.30,0.14 1.24,0.35 1.19,0.55 1.07,0.73 0.95,0.90 0.78,1.03 0.61,1.16 0.40,1.22 0.20,1.29 -0.00,1.29 -0.21,1.29 -0.41,1.22 -0.61,1.15 -0.78,1.02 -0.95,0.89 -1.07,0.72 -1.19,0.54 -1.24,0.34 -1.30,0.13 -1.29,-0.07 -1.28,-0.28 -1.20,-0.48 -1.12,-0.68 -0.98,-0.84 -0.84,-1.00 -0.66,-1.11 -0.48,-1.22 -0.27,-1.26 -0.06,-1.31 0.14,-1.28 0.35,-1.26 0.54,-1.17 0.74,-1.08 0.89,-0.93 1.04,-0.79 1.14,-0.60 1.24,-0.41 1.24,-0.41 1.24,-0.41 1.27,-0.26 1.30,-0.10 1.30,0.05 1.29,0.21 1.25,0.36 1.20,0.51 1.12,0.65 1.04,0.78 0.93,0.90 0.83,1.01 0.69,1.10 0.56,1.18 0.41,1.23 0.26,1.28 0.10,1.29 -0.05,1.31 -0.20,1.28 -0.36,1.26 -0.51,1.19 -0.65,1.13 -0.78,1.04 -0.91,0.94 -1.01,0.82 -1.11,0.70 -1.17,0.55 -1.24,0.41 -1.55,0.51 -1.86,0.62 -1.91,0.39 -1.96,0.15 -1.95,-0.07 -1.94,-0.31 -1.87,-0.54 -1.81,-0.77 -1.69,-0.97 -1.57,-1.18 -1.40,-1.35 -1.24,-1.52 -1.04,-1.65 -0.84,-1.77 -0.61,-1.85 -0.39,-1.92 -0.15,-1.94 0.08,-1.96 0.31,-1.92 0.54,-1.89 0.76,-1.79 0.98,-1.70 1.17,-1.56 1.36,-1.41 1.51,-1.23 1.66,-1.05 1.76,-0.83 1.86,-0.62 1.86,-0.62 L 1.86,-0.62 Z"></path></g><g transform="translate(26.73543524748004 111.35346654575659) rotate(10.747726640977856 35.551030422162626 17.427006981259098)" stroke="none"><path fill="#1e1e1e" d="M -1.81,-0.36 Q -1.81,-0.36 -1.60,-2.40 -1.38,-4.44 -1.29,-6.00 -1.20,-7.56 -0.69,-9.36 -0.19,-11.16 1.15,-12.71 2.50,-14.25 5.63,-14.82 8.75,-15.39 12.25,-12.17 15.75,-8.95 18.41,-2.90 21.07,3.14 22.99,11.79 24.92,20.45 25.33,29.86 25.75,39.28 24.71,49.78 23.66,60.29 21.59,68.87 19.52,77.45 16.18,84.86 12.83,92.27 9.68,96.77 6.53,101.27 4.90,102.24 3.27,103.22 3.05,103.46 2.83,103.70 2.57,103.88 2.30,104.06 1.99,104.17 1.69,104.28 1.37,104.32 1.05,104.36 0.73,104.31 0.41,104.27 0.11,104.16 -0.18,104.04 -0.45,103.85 -0.71,103.67 -0.92,103.42 -1.14,103.18 -1.28,102.89 -1.43,102.60 -1.50,102.29 -1.58,101.97 -1.58,101.65 -1.57,101.33 -1.49,101.02 -1.41,100.70 -1.26,100.42 -1.11,100.13 -2.42,96.84 -3.73,93.54 -3.44,82.90 -3.14,72.26 0.23,54.07 3.62,35.88 8.30,19.30 12.98,2.72 21.50,-13.71 30.02,-30.15 38.95,-41.23 47.89,-52.32 54.15,-58.25 60.41,-64.19 64.87,-66.37 69.34,-68.55 71.51,-66.87 73.69,-65.18 72.99,-57.33 72.28,-49.47 70.28,-40.63 68.29,-31.79 66.70,-18.60 65.11,-5.41 64.02,5.43 62.94,16.27 62.48,24.04 62.02,31.81 62.15,37.40 62.28,42.99 62.96,45.54 63.64,48.08 63.82,50.33 63.99,52.58 64.02,52.79 64.05,53.00 64.01,53.21 63.97,53.42 63.86,53.61 63.76,53.79 63.60,53.93 63.45,54.08 63.25,54.16 63.06,54.25 62.84,54.26 62.63,54.28 62.43,54.23 62.22,54.18 62.04,54.07 61.86,53.96 61.73,53.79 61.59,53.63 61.52,53.43 61.44,53.23 61.44,53.01 61.43,52.80 61.49,52.60 61.55,52.40 61.68,52.22 61.80,52.05 61.97,51.92 62.14,51.80 62.35,51.74 62.55,51.67 62.76,51.68 62.97,51.68 63.17,51.75 63.37,51.83 63.54,51.96 63.71,52.09 63.82,52.27 63.94,52.45 63.99,52.65 64.04,52.86 64.02,53.07 64.01,53.28 63.93,53.48 63.84,53.67 63.70,53.83 63.56,53.99 63.38,54.10 63.19,54.20 62.98,54.24 62.77,54.29 62.56,54.26 62.35,54.23 62.16,54.14 61.97,54.04 61.82,53.89 61.67,53.74 61.57,53.55 61.48,53.36 61.48,53.36 61.48,53.37 60.34,51.42 59.20,49.47 58.10,46.35 57.01,43.22 56.74,37.35 56.47,31.48 56.95,23.59 57.43,15.71 58.56,4.81 59.69,-6.08 61.43,-19.53 63.16,-32.98 65.21,-41.57 67.25,-50.15 67.81,-57.43 68.36,-64.71 66.00,-62.73 63.65,-60.75 57.65,-55.02 51.64,-49.29 43.03,-38.57 34.42,-27.85 26.18,-11.85 17.94,4.13 13.36,20.49 8.78,36.84 5.48,54.64 2.17,72.44 1.81,82.36 1.44,92.28 2.35,97.75 3.27,103.22 3.05,103.46 2.83,103.70 2.57,103.88 2.30,104.06 1.99,104.17 1.69,104.28 1.37,104.32 1.05,104.36 0.73,104.31 0.41,104.27 0.11,104.16 -0.18,104.04 -0.45,103.85 -0.71,103.67 -0.92,103.42 -1.13,103.18 -1.28,102.89 -1.43,102.60 -1.50,102.29 -1.58,101.97 -1.58,101.65 -1.57,101.33 -1.49,101.02 -1.41,100.70 -1.26,100.42 -1.11,100.13 0.60,99.10 2.31,98.07 5.15,94.06 8.00,90.05 11.20,83.11 14.40,76.18 16.42,67.97 18.45,59.76 19.49,49.62 20.53,39.48 20.19,30.51 19.85,21.53 18.11,13.33 16.38,5.12 14.19,-0.21 12.01,-5.55 9.78,-8.36 7.55,-11.18 5.96,-10.33 4.37,-9.48 3.93,-8.27 3.49,-7.06 3.23,-5.31 2.98,-3.57 2.40,-1.60 1.81,0.36 1.74,0.57 1.67,0.78 1.55,0.97 1.44,1.16 1.27,1.32 1.11,1.47 0.92,1.58 0.73,1.70 0.51,1.76 0.30,1.82 0.08,1.83 -0.14,1.84 -0.36,1.80 -0.58,1.76 -0.78,1.66 -0.98,1.57 -1.15,1.42 -1.33,1.28 -1.46,1.11 -1.60,0.93 -1.68,0.72 -1.77,0.52 -1.81,0.30 -1.85,0.08 -1.83,-0.14 -1.81,-0.36 -1.81,-0.36 L -1.81,-0.36 Z"></path></g><g transform="translate(60.23970417272835 133.18807438810018) rotate(10.747726640977856 6.9707496094989665 -4.1824710389012125)" stroke="none"><path fill="#1e1e1e" d="M -0.81,-1.62 Q -0.81,-1.62 -0.15,-2.32 0.49,-3.02 3.29,-4.28 6.09,-5.55 8.91,-7.02 11.74,-8.49 13.88,-9.68 16.01,-10.86 16.21,-10.94 16.40,-11.03 16.61,-11.05 16.83,-11.06 17.03,-11.01 17.24,-10.96 17.42,-10.85 17.60,-10.74 17.73,-10.57 17.87,-10.40 17.94,-10.21 18.01,-10.01 18.02,-9.79 18.03,-9.58 17.97,-9.38 17.90,-9.18 17.78,-9.00 17.66,-8.83 17.48,-8.70 17.31,-8.58 17.11,-8.52 16.91,-8.45 16.69,-8.46 16.48,-8.46 16.28,-8.54 16.08,-8.61 15.92,-8.74 15.75,-8.87 15.64,-9.05 15.52,-9.23 15.47,-9.44 15.42,-9.64 15.43,-9.85 15.45,-10.07 15.53,-10.26 15.62,-10.46 15.76,-10.62 15.90,-10.77 16.08,-10.88 16.27,-10.99 16.48,-11.03 16.68,-11.07 16.90,-11.04 17.11,-11.01 17.30,-10.92 17.49,-10.82 17.64,-10.67 17.79,-10.52 17.88,-10.33 17.98,-10.14 18.01,-9.93 18.04,-9.72 18.00,-9.51 17.96,-9.31 17.86,-9.12 17.75,-8.94 17.59,-8.79 17.44,-8.65 17.44,-8.65 17.44,-8.65 15.48,-7.19 13.52,-5.74 10.81,-3.64 8.09,-1.54 5.40,-0.06 2.71,1.42 1.76,1.52 0.81,1.62 0.60,1.69 0.39,1.77 0.18,1.79 -0.03,1.81 -0.25,1.78 -0.46,1.75 -0.67,1.67 -0.87,1.58 -1.05,1.46 -1.22,1.33 -1.37,1.16 -1.51,1.00 -1.61,0.80 -1.70,0.60 -1.75,0.39 -1.80,0.18 -1.80,-0.03 -1.79,-0.25 -1.74,-0.46 -1.68,-0.67 -1.57,-0.86 -1.47,-1.06 -1.32,-1.22 -1.17,-1.38 -0.99,-1.50 -0.81,-1.62 -0.81,-1.62 L -0.81,-1.62 Z"></path></g><g transform="translate(123.19760271658276 130.47722460309996) rotate(10.747726640977856 34.85401396251791 -9.062064903456559)" stroke="none"><path fill="#1e1e1e" d="M -1.86,-0.37 Q -1.86,-0.37 -1.67,-2.39 -1.49,-4.42 -1.72,-5.61 -1.95,-6.81 -3.26,-7.49 -4.57,-8.18 -5.65,-7.95 -6.73,-7.73 -7.66,-6.76 -8.58,-5.79 -8.90,-4.23 -9.22,-2.68 -8.29,0.02 -7.36,2.73 -4.73,6.16 -2.10,9.60 0.62,12.73 3.36,15.87 5.86,19.34 8.35,22.82 9.56,26.17 10.77,29.52 11.18,31.66 11.59,33.79 9.67,37.30 7.75,40.81 4.85,42.80 1.96,44.79 -1.44,44.83 -4.85,44.86 -7.54,43.20 -10.23,41.53 -11.50,37.93 -12.77,34.32 -12.34,29.74 -11.90,25.16 -8.36,16.28 -4.82,7.40 -0.91,-0.70 3.00,-8.81 7.07,-17.41 11.13,-26.01 14.05,-32.83 16.96,-39.65 18.15,-44.01 19.33,-48.37 19.83,-51.74 20.33,-55.10 20.18,-56.60 20.03,-58.11 19.75,-56.77 19.47,-55.42 19.86,-51.24 20.24,-47.06 20.83,-39.59 21.42,-32.13 21.68,-25.30 21.93,-18.47 22.04,-11.15 22.16,-3.84 22.21,2.07 22.26,7.98 22.29,11.69 22.31,15.41 22.34,17.79 22.36,20.16 22.32,20.51 22.28,20.85 22.16,21.17 22.04,21.49 21.84,21.78 21.65,22.06 21.39,22.29 21.14,22.52 20.83,22.68 20.53,22.85 20.19,22.93 19.86,23.01 19.52,23.02 19.17,23.02 18.84,22.94 18.50,22.86 18.20,22.70 17.89,22.54 17.63,22.31 17.37,22.08 17.17,21.80 16.98,21.52 16.85,21.20 16.73,20.88 16.69,20.53 16.64,20.19 18.32,18.16 20.00,16.13 20.96,13.40 21.93,10.67 24.10,5.30 26.28,-0.05 28.01,-4.34 29.74,-8.63 31.42,-11.47 33.10,-14.31 34.11,-14.98 35.13,-15.65 35.32,-15.91 35.52,-16.17 35.78,-16.38 36.03,-16.58 36.33,-16.72 36.63,-16.86 36.95,-16.92 37.27,-16.99 37.60,-16.97 37.93,-16.96 38.24,-16.87 38.56,-16.77 38.84,-16.61 39.12,-16.44 39.36,-16.21 39.59,-15.99 39.77,-15.71 39.94,-15.43 40.04,-15.12 40.15,-14.81 40.17,-14.48 40.20,-14.15 40.14,-13.83 40.09,-13.50 39.96,-13.20 39.83,-12.90 40.65,-10.41 41.48,-7.92 41.96,-5.01 42.44,-2.10 43.05,1.14 43.66,4.39 42.98,5.61 42.30,6.82 43.66,6.58 45.01,6.34 45.55,5.03 46.10,3.71 47.33,1.49 48.55,-0.71 49.00,-2.24 49.44,-3.76 49.69,-4.92 49.93,-6.08 50.07,-6.39 50.21,-6.70 50.42,-6.97 50.63,-7.24 50.90,-7.45 51.16,-7.66 51.47,-7.80 51.78,-7.94 52.12,-8.00 52.45,-8.06 52.79,-8.04 53.13,-8.02 53.45,-7.92 53.78,-7.82 54.07,-7.64 54.36,-7.47 54.60,-7.23 54.84,-6.99 55.02,-6.70 55.19,-6.41 55.30,-6.08 55.40,-5.76 55.42,-5.42 55.44,-5.08 55.38,-4.74 55.32,-4.41 55.83,-2.91 56.35,-1.42 57.75,-3.19 59.15,-4.95 59.93,-6.38 60.72,-7.80 63.14,-8.11 65.56,-8.41 66.99,-6.41 68.42,-4.41 69.33,-3.36 70.24,-2.31 72.06,-2.80 73.87,-3.28 75.19,-4.04 76.51,-4.80 77.19,-7.07 77.87,-9.35 77.87,-12.48 77.87,-15.61 77.15,-18.39 76.44,-21.17 75.46,-23.50 74.49,-25.83 73.62,-28.61 72.76,-31.39 72.68,-31.59 72.60,-31.79 72.59,-32.00 72.58,-32.21 72.64,-32.41 72.70,-32.62 72.82,-32.79 72.94,-32.97 73.11,-33.10 73.28,-33.22 73.48,-33.29 73.68,-33.36 73.89,-33.36 74.11,-33.36 74.31,-33.29 74.51,-33.22 74.68,-33.09 74.84,-32.96 74.96,-32.78 75.08,-32.61 75.14,-32.40 75.19,-32.20 75.18,-31.98 75.17,-31.77 75.09,-31.57 75.01,-31.38 74.87,-31.22 74.73,-31.06 74.55,-30.95 74.36,-30.84 74.16,-30.79 73.95,-30.75 73.74,-30.77 73.53,-30.80 73.33,-30.89 73.14,-30.98 72.99,-31.12 72.84,-31.27 72.74,-31.46 72.64,-31.65 72.61,-31.86 72.57,-32.07 72.61,-32.28 72.64,-32.49 72.74,-32.67 72.84,-32.86 73.00,-33.01 73.15,-33.15 73.35,-33.24 73.54,-33.33 73.75,-33.35 73.96,-33.37 74.17,-33.32 74.38,-33.28 74.56,-33.17 74.74,-33.06 74.88,-32.89 75.01,-32.73 75.01,-32.73 75.01,-32.73 77.21,-30.37 79.40,-28.01 80.67,-25.26 81.95,-22.52 82.75,-19.02 83.56,-15.51 83.37,-11.41 83.17,-7.31 81.51,-3.89 79.85,-0.47 77.56,0.85 75.26,2.18 72.13,2.63 68.99,3.07 67.50,2.20 66.01,1.34 64.78,-0.15 63.56,-1.65 62.67,-3.31 61.78,-4.97 63.58,-4.91 65.39,-4.85 64.72,-3.52 64.05,-2.18 63.23,-0.75 62.41,0.68 60.93,2.41 59.44,4.13 57.37,4.41 55.29,4.68 53.95,3.83 52.61,2.97 51.84,1.71 51.07,0.44 50.55,-1.15 50.03,-2.75 49.98,-4.42 49.93,-6.08 50.07,-6.39 50.21,-6.70 50.42,-6.97 50.63,-7.24 50.89,-7.45 51.16,-7.66 51.47,-7.80 51.78,-7.94 52.12,-8.00 52.45,-8.06 52.79,-8.04 53.13,-8.02 53.45,-7.92 53.78,-7.82 54.07,-7.64 54.36,-7.47 54.60,-7.23 54.84,-6.99 55.02,-6.70 55.19,-6.41 55.30,-6.08 55.40,-5.76 55.42,-5.42 55.44,-5.08 55.38,-4.74 55.32,-4.41 55.08,-3.25 54.85,-2.08 54.18,-0.02 53.51,2.03 52.12,4.49 50.72,6.94 48.86,9.05 47.01,11.17 44.59,11.47 42.18,11.76 40.18,8.58 38.19,5.40 37.59,2.08 36.99,-1.23 36.50,-4.36 36.02,-7.49 35.97,-9.41 35.91,-11.34 35.52,-13.49 35.12,-15.65 35.32,-15.91 35.52,-16.17 35.78,-16.38 36.03,-16.58 36.33,-16.72 36.63,-16.86 36.95,-16.92 37.27,-16.99 37.60,-16.97 37.93,-16.96 38.24,-16.87 38.56,-16.77 38.84,-16.61 39.12,-16.44 39.36,-16.21 39.59,-15.99 39.77,-15.71 39.94,-15.43 40.04,-15.12 40.15,-14.81 40.17,-14.48 40.20,-14.15 40.14,-13.83 40.09,-13.50 39.96,-13.20 39.83,-12.90 38.74,-12.14 37.65,-11.38 36.26,-8.97 34.87,-6.56 33.16,-2.27 31.45,2.02 29.31,7.41 27.16,12.80 24.76,16.48 22.36,20.16 22.32,20.51 22.28,20.85 22.16,21.17 22.04,21.49 21.84,21.78 21.65,22.06 21.39,22.29 21.14,22.52 20.83,22.68 20.53,22.85 20.19,22.93 19.86,23.01 19.52,23.02 19.17,23.02 18.84,22.94 18.50,22.86 18.20,22.70 17.89,22.54 17.63,22.31 17.37,22.08 17.17,21.80 16.98,21.52 16.85,21.20 16.73,20.88 16.69,20.53 16.64,20.19 16.65,17.81 16.66,15.43 16.65,11.73 16.64,8.02 16.61,2.12 16.57,-3.76 16.48,-11.02 16.40,-18.28 16.18,-25.00 15.96,-31.72 15.44,-39.16 14.91,-46.61 14.56,-51.09 14.22,-55.58 14.65,-58.77 15.08,-61.97 17.22,-63.09 19.35,-64.21 21.11,-63.36 22.87,-62.51 23.98,-60.73 25.10,-58.95 25.30,-56.66 25.50,-54.36 24.95,-50.68 24.39,-46.99 23.09,-42.30 21.80,-37.61 18.87,-30.68 15.95,-23.76 11.93,-15.11 7.91,-6.46 4.13,1.50 0.35,9.47 -2.91,17.66 -6.17,25.86 -6.65,29.39 -7.12,32.92 -6.77,35.20 -6.41,37.47 -5.28,38.33 -4.14,39.19 -2.32,39.50 -0.51,39.82 1.34,38.69 3.20,37.56 4.92,35.63 6.64,33.69 6.19,32.45 5.73,31.20 4.91,28.48 4.09,25.75 1.81,22.47 -0.47,19.19 -3.31,15.88 -6.16,12.57 -9.13,8.37 -12.10,4.18 -13.03,0.25 -13.95,-3.67 -12.97,-6.42 -11.99,-9.16 -9.86,-10.77 -7.73,-12.38 -5.40,-12.55 -3.07,-12.73 -1.39,-11.93 0.29,-11.14 1.46,-9.47 2.64,-7.81 2.86,-5.70 3.09,-3.59 2.48,-1.60 1.86,0.37 1.79,0.59 1.72,0.81 1.60,1.00 1.48,1.19 1.31,1.35 1.15,1.51 0.95,1.63 0.75,1.75 0.53,1.81 0.31,1.88 0.08,1.89 -0.14,1.90 -0.37,1.85 -0.59,1.81 -0.80,1.71 -1.01,1.61 -1.19,1.47 -1.36,1.32 -1.50,1.14 -1.64,0.95 -1.73,0.74 -1.82,0.53 -1.86,0.31 -1.90,0.08 -1.88,-0.14 -1.86,-0.37 -1.86,-0.37 L -1.86,-0.37 Z"></path></g><g transform="translate(286.3304534008529 87.90361797077986) rotate(10.747726640977856 -1.3941392852987065 -6.970802792503605)" stroke="none"><path fill="#1e1e1e" d="M -1.27,-1.27 Q -1.27,-1.27 -0.19,-2.59 0.88,-3.92 1.78,-4.84 2.68,-5.75 3.30,-6.78 3.92,-7.80 4.15,-9.64 4.38,-11.48 2.09,-10.97 -0.20,-10.46 -2.14,-9.63 -4.08,-8.79 -1.46,-4.70 1.16,-0.61 1.22,-0.40 1.29,-0.20 1.29,0.00 1.29,0.21 1.22,0.41 1.15,0.61 1.02,0.78 0.89,0.95 0.72,1.07 0.54,1.19 0.34,1.25 0.13,1.30 -0.07,1.29 -0.28,1.28 -0.48,1.20 -0.68,1.12 -0.84,0.98 -1.00,0.84 -1.11,0.66 -1.22,0.48 -1.26,0.27 -1.31,0.06 -1.28,-0.14 -1.26,-0.35 -1.17,-0.54 -1.08,-0.74 -0.93,-0.89 -0.79,-1.04 -0.60,-1.14 -0.41,-1.24 -0.20,-1.27 0.00,-1.31 0.21,-1.27 0.42,-1.24 0.61,-1.14 0.79,-1.04 0.94,-0.88 1.09,-0.73 1.17,-0.53 1.26,-0.34 1.28,-0.13 1.31,0.07 1.26,0.28 1.21,0.49 1.10,0.67 0.99,0.85 0.83,0.99 0.67,1.12 0.47,1.20 0.27,1.28 0.06,1.29 -0.14,1.30 -0.35,1.24 -0.55,1.18 -0.73,1.06 -0.90,0.94 -1.03,0.77 -1.16,0.61 -1.16,0.61 -1.16,0.61 -2.85,-2.84 -4.55,-6.30 -6.56,-6.38 -8.57,-6.46 -9.22,-7.96 -9.86,-9.46 -7.90,-11.44 -5.94,-13.41 -3.35,-14.39 -0.75,-15.38 2.19,-15.59 5.14,-15.80 6.53,-15.17 7.91,-14.55 8.52,-12.66 9.13,-10.78 8.92,-9.71 8.72,-8.64 8.20,-7.02 7.68,-5.41 6.72,-4.05 5.77,-2.69 4.84,-1.79 3.92,-0.88 2.59,0.19 1.27,1.27 1.10,1.40 0.93,1.54 0.73,1.63 0.53,1.72 0.32,1.76 0.10,1.80 -0.10,1.78 -0.32,1.77 -0.53,1.70 -0.74,1.64 -0.92,1.53 -1.11,1.42 -1.26,1.26 -1.42,1.11 -1.53,0.92 -1.64,0.74 -1.70,0.53 -1.77,0.32 -1.78,0.10 -1.80,-0.10 -1.76,-0.32 -1.72,-0.53 -1.63,-0.73 -1.54,-0.93 -1.40,-1.10 -1.27,-1.27 -1.27,-1.27 L -1.27,-1.27 Z"></path></g><g transform="translate(230.16728008596965 116.91573824116153) rotate(10.747726640977856 34.15689113686403 9.062064903456559)" stroke="none"><path fill="#1e1e1e" d="M 0,1.48 Q 0,1.48 -1.45,1.76 -2.90,2.03 -3.81,3.04 -4.72,4.05 -5.47,5.83 -6.22,7.61 -7.00,9.97 -7.78,12.34 -8.08,14.43 -8.38,16.52 -8.51,18.17 -8.65,19.83 -7.43,18.07 -6.22,16.30 -5.00,14.44 -3.78,12.58 -2.95,10.74 -2.12,8.91 -1.26,7.52 -0.40,6.14 -0.05,5.21 0.28,4.28 0.46,4.05 0.64,3.83 0.87,3.66 1.10,3.49 1.37,3.38 1.63,3.27 1.91,3.22 2.20,3.18 2.48,3.20 2.77,3.22 3.04,3.32 3.31,3.41 3.55,3.56 3.79,3.72 3.99,3.92 4.19,4.13 4.33,4.38 4.48,4.63 4.55,4.90 4.63,5.18 4.64,5.47 4.65,5.75 4.60,6.03 4.54,6.31 4.41,6.57 4.29,6.83 4.68,7.92 5.08,9.01 5.50,11.45 5.92,13.90 6.48,16.10 7.04,18.31 7.58,19.86 8.13,21.42 9.09,19.96 10.05,18.50 11.27,15.39 12.50,12.28 13.42,9.37 14.34,6.45 15.15,3.97 15.96,1.49 16.31,0.07 16.66,-1.33 18.72,-2.62 20.79,-3.90 22.32,-1.94 23.86,0.01 24.52,2.26 25.17,4.51 25.82,6.59 26.47,8.67 27.08,9.77 27.68,10.87 27.98,11.92 28.28,12.97 28.67,10.16 29.06,7.35 30.01,4.29 30.96,1.24 33.30,-2.12 35.65,-5.49 36.59,-4.73 37.53,-3.97 38.01,-1.92 38.49,0.12 38.93,1.84 39.37,3.56 39.59,5.30 39.82,7.04 40.31,8.14 40.81,9.24 40.81,9.54 40.81,9.84 40.74,10.14 40.67,10.43 40.52,10.70 40.38,10.97 40.18,11.20 39.98,11.42 39.73,11.60 39.49,11.77 39.20,11.88 38.92,11.98 38.62,12.02 38.32,12.06 38.02,12.02 37.72,11.98 37.43,11.88 37.15,11.77 36.90,11.60 36.65,11.43 36.45,11.20 36.25,10.97 36.11,10.71 35.97,10.44 35.89,10.14 35.82,9.85 37.29,7.98 38.77,6.10 39.28,4.96 39.78,3.81 41.07,2.18 42.35,0.54 43.53,-0.32 44.71,-1.19 46.39,-1.65 48.07,-2.11 49.55,-1.81 51.04,-1.50 52.64,-0.99 54.24,-0.47 56.43,0.12 58.62,0.72 61.21,0.58 63.80,0.43 66.94,0.10 70.08,-0.22 72.44,-1.23 74.81,-2.24 76.83,-3.09 78.84,-3.94 79.04,-4.01 79.24,-4.08 79.45,-4.08 79.67,-4.08 79.87,-4.01 80.07,-3.95 80.24,-3.82 80.41,-3.69 80.53,-3.52 80.65,-3.34 80.71,-3.14 80.77,-2.93 80.76,-2.72 80.75,-2.51 80.67,-2.31 80.59,-2.11 80.46,-1.95 80.32,-1.79 80.14,-1.68 79.96,-1.57 79.75,-1.52 79.54,-1.47 79.33,-1.49 79.12,-1.52 78.93,-1.60 78.73,-1.69 78.58,-1.84 78.42,-1.98 78.32,-2.17 78.22,-2.36 78.18,-2.56 78.15,-2.77 78.18,-2.98 78.21,-3.19 78.31,-3.38 78.41,-3.57 78.56,-3.72 78.72,-3.87 78.91,-3.96 79.10,-4.05 79.31,-4.07 79.52,-4.10 79.73,-4.05 79.94,-4.01 80.12,-3.90 80.31,-3.79 80.44,-3.63 80.58,-3.47 80.66,-3.27 80.74,-3.07 80.76,-2.86 80.77,-2.65 80.71,-2.45 80.66,-2.24 80.54,-2.06 80.42,-1.89 80.25,-1.76 80.09,-1.63 80.09,-1.63 80.09,-1.63 78.27,-0.41 76.45,0.79 73.64,2.58 70.82,4.37 67.43,4.95 64.03,5.54 60.68,5.66 57.32,5.79 54.96,5.14 52.60,4.50 50.70,3.69 48.81,2.88 47.53,3.30 46.24,3.72 45.22,4.98 44.19,6.24 42.50,7.74 40.81,9.24 40.81,9.54 40.81,9.84 40.74,10.14 40.67,10.43 40.53,10.70 40.38,10.97 40.18,11.20 39.98,11.42 39.73,11.60 39.49,11.77 39.20,11.88 38.92,11.98 38.62,12.02 38.32,12.06 38.02,12.02 37.72,11.98 37.43,11.88 37.15,11.77 36.90,11.60 36.65,11.43 36.45,11.20 36.25,10.97 36.11,10.71 35.97,10.44 35.89,10.14 35.82,9.85 35.35,8.78 34.87,7.71 34.70,6.23 34.53,4.74 34.45,1.96 34.36,-0.82 35.04,0.96 35.71,2.75 34.61,6.17 33.52,9.59 31.55,12.94 29.58,16.30 28.14,16.59 26.69,16.89 24.98,15.03 23.27,13.17 22.51,11.67 21.75,10.17 21.08,8.02 20.41,5.88 19.75,3.07 19.09,0.26 20.22,0.16 21.35,0.05 21.02,1.54 20.68,3.03 19.88,5.49 19.08,7.96 18.10,11.04 17.12,14.11 15.75,17.54 14.38,20.97 12.65,23.36 10.92,25.75 9.03,25.92 7.14,26.09 5.51,24.79 3.89,23.50 3.13,21.49 2.38,19.49 1.78,17.09 1.18,14.68 0.75,10.91 0.32,7.13 0.30,5.70 0.28,4.28 0.46,4.05 0.64,3.83 0.87,3.66 1.10,3.49 1.37,3.38 1.63,3.27 1.91,3.22 2.20,3.18 2.48,3.20 2.77,3.22 3.04,3.32 3.31,3.41 3.55,3.56 3.79,3.72 3.99,3.92 4.19,4.13 4.33,4.38 4.48,4.63 4.55,4.90 4.63,5.18 4.64,5.47 4.65,5.75 4.60,6.03 4.54,6.31 4.41,6.57 4.29,6.83 3.96,7.76 3.63,8.68 2.90,9.80 2.17,10.91 1.16,13.05 0.14,15.19 -1.09,17.03 -2.33,18.87 -3.72,20.74 -5.10,22.60 -7.17,23.51 -9.24,24.42 -10.33,24.00 -11.42,23.58 -12.31,21.57 -13.20,19.55 -13.03,17.68 -12.86,15.81 -12.45,13.37 -12.04,10.92 -11.14,8.29 -10.24,5.65 -8.93,3.20 -7.62,0.75 -5.56,-0.64 -3.50,-2.03 -1.75,-1.76 0,-1.48 0.17,-1.46 0.35,-1.44 0.52,-1.38 0.69,-1.31 0.83,-1.21 0.98,-1.11 1.10,-0.97 1.22,-0.84 1.30,-0.68 1.39,-0.52 1.43,-0.35 1.47,-0.17 1.47,0.00 1.47,0.17 1.43,0.35 1.39,0.52 1.30,0.68 1.22,0.84 1.10,0.97 0.98,1.11 0.83,1.21 0.69,1.31 0.52,1.38 0.35,1.44 0.17,1.46 -0.00,1.48 -0.00,1.48 L 0,1.48 Z"></path></g></svg>